<svg xmlns="http://www.w3.org/2000/svg" viewBox="0 0 512 512" role="img" aria-labelledby="title desc">
  <title id="title">Privada Reforma AI Logo</title>
  <desc id="desc">Isotipo moderno con casa, red de nodos y acceso digital.</desc>
  <defs>
    <linearGradient id="bg" x1="0" y1="0" x2="1" y2="1">
      <stop offset="0%" stop-color="#0d0d0d"/>
      <stop offset="100%" stop-color="#1b1b1b"/>
    </linearGradient>
    <linearGradient id="accent" x1="0" y1="0" x2="1" y2="1">
      <stop offset="0%" stop-color="#5eead4"/>
      <stop offset="100%" stop-color="#22d3ee"/>
    </linearGradient>
  </defs>

  <rect width="512" height="512" rx="120" fill="url(#bg)"/>

  <g fill="none" stroke="url(#accent)" stroke-linecap="round" stroke-linejoin="round">
    <path d="M112 250 256 130l144 120" stroke-width="24"/>
    <path d="M156 242v142h200V242" stroke-width="22"/>
    <rect x="232" y="300" width="48" height="84" rx="12" stroke-width="16"/>
  </g>

  <g fill="url(#accent)">
    <circle cx="118" cy="250" r="12"/>
    <circle cx="394" cy="250" r="12"/>
    <circle cx="256" cy="130" r="12"/>
  </g>

  <g fill="none" stroke="#e5e7eb" stroke-width="10" opacity="0.95">
    <rect x="80" y="86" width="74" height="74" rx="12"/>
    <path d="M98 123h38M117 104v38"/>
    <rect x="358" y="86" width="74" height="74" rx="12"/>
    <path d="M376 104h38v38h-38z"/>
  </g>

  <g stroke="#94a3b8" stroke-width="8" opacity="0.7">
    <path d="M154 122h52M306 122h52"/>
  </g>
</svg>
